<svg width="50" height="21" viewBox="0 0 50 21" fill="none" xmlns="http://www.w3.org/2000/svg">
    <path fill-rule="evenodd" clip-rule="evenodd"
          d="M25.1436 9.19C25.1287 8.46785 24.6384 8.11179 23.6602 8.11179C22.9469 8.11179 22.469 8.41018 22.469 8.84899C22.469 9.17496 22.6101 9.2878 23.1822 9.47335L25.7875 10.2256C26.8226 10.5365 27.3427 11.2035 27.3427 12.2391C27.3427 13.0189 26.9935 13.7712 26.4041 14.2376C25.8147 14.7039 24.9752 14.9472 23.883 14.9472C21.4734 14.9472 20.2005 14.0395 20.1436 12.2817H22.1594C22.2436 12.708 22.3427 12.8785 22.5507 13.034C22.8157 13.2321 23.2218 13.3173 23.7691 13.3173C24.7226 13.3173 25.2946 13.0189 25.2946 12.5375C25.2946 12.2115 25.1114 12.056 24.6086 11.8855L22.1569 11.1208C21.3867 10.865 21.149 10.7371 20.8692 10.4538C20.5893 10.1428 20.4358 9.68899 20.4358 9.14988C20.4358 7.50498 21.6815 6.48444 23.6998 6.48444C25.8296 6.48444 27.1173 7.50498 27.1446 9.19251L25.1436 9.19Z"
          fill="#2375D9"/>
    <path fill-rule="evenodd" clip-rule="evenodd"
          d="M32.2865 8.1407H31.1374V12.4937C31.1374 13.2033 31.2637 13.3738 31.8086 13.3738C31.977 13.3738 32.0735 13.3588 32.284 13.3312V14.778C31.9051 14.8908 31.5708 14.9335 31.0929 14.9335C29.7481 14.9335 29.077 14.3091 29.077 13.0478V8.12565H28.0703V6.74905H29.0782V4.60767H31.1362V6.74905H32.2853V8.1407H32.2865Z"
          fill="#2375D9"/>
    <path fill-rule="evenodd" clip-rule="evenodd"
          d="M40.9563 10.7636C40.9563 13.3438 39.458 14.946 37.0335 14.946C34.5967 14.946 33.1133 13.3438 33.1133 10.7059C33.1133 8.08308 34.5967 6.46576 37.0212 6.46576C39.5125 6.46576 40.9563 8.0555 40.9563 10.7636ZM35.1712 10.7059C35.1712 12.2505 35.9142 13.2736 37.0335 13.2736C38.1405 13.2736 38.8959 12.238 38.8959 10.736C38.8959 9.1613 38.1678 8.14075 37.0335 8.14075C35.9266 8.14075 35.1712 9.17383 35.1712 10.7059Z"
          fill="#2375D9"/>
    <path fill-rule="evenodd" clip-rule="evenodd"
          d="M44.1703 7.78579C44.6755 6.89313 45.3738 6.46686 46.3694 6.46686C47.3228 6.46686 48.301 6.97838 48.8335 7.72812C49.3659 8.46532 49.6879 9.5987 49.6879 10.7195C49.6879 13.1443 48.2738 14.9597 46.3694 14.9597C45.3738 14.9597 44.6606 14.5485 44.1703 13.6558V17.8383H42.1123V6.60978H44.1703V7.78579ZM44.1703 10.722C44.1703 12.2115 44.8562 13.217 45.9063 13.217C46.9291 13.217 47.6423 12.209 47.6423 10.7496C47.6423 9.20502 46.9563 8.19702 45.9063 8.19702C44.8562 8.21206 44.1703 9.21681 44.1703 10.7213V10.722Z"
          fill="#2375D9"/>
    <path fill-rule="evenodd" clip-rule="evenodd"
          d="M10.0047 0.606201C4.5812 0.606201 0.158203 5.08455 0.158203 10.5759C0.158203 16.0673 4.5812 20.5457 10.0047 20.5457C15.4282 20.5457 19.8512 16.0673 19.8512 10.5759C19.8512 5.08455 15.4257 0.606201 10.0047 0.606201ZM9.01657 14.613H6.971V13.6784C6.3816 14.5861 5.66837 14.9698 4.5911 14.9698C2.88233 14.9698 1.92889 13.9768 1.92889 12.204V6.62991H3.98684V11.7627C3.98684 12.7281 4.42023 13.1945 5.30433 13.1945C6.31226 13.1945 6.95614 12.5701 6.95614 11.6198V6.61487H9.0141V14.6137L9.01657 14.613ZM16.0201 14.613V9.67825C16.0201 8.72792 15.5867 8.24648 14.7026 8.24648C13.6946 8.24648 13.0508 8.87084 13.0508 9.82118V14.613H10.9928V6.61411H13.0384V7.77758C13.6278 6.86988 14.341 6.48623 15.4183 6.48623C17.127 6.48623 18.0805 7.47919 18.0805 9.25198V14.613H16.0201Z"
          fill="#2375D9"/>
</svg>
