<svg width="52" height="18" viewBox="0 0 52 18" fill="none" xmlns="http://www.w3.org/2000/svg">
    <path fill-rule="evenodd" clip-rule="evenodd"
          d="M46.3071 3.57043C44.2776 3.57043 43.1308 3.97044 42.4725 4.90789C41.7846 5.88706 41.6465 7.43273 41.6465 9.60966C41.6465 13.8828 42.2941 15.6692 46.3071 15.6692C46.7892 15.6692 48.4368 15.6599 49.3987 15.54C49.773 15.4767 49.9405 15.1841 49.9405 14.9223V14.4504C49.9405 14.083 49.6687 13.806 49.308 13.806H46.3071C44.0428 13.806 43.6344 13.2611 43.5765 10.1635V9.16085C43.5957 5.99098 44.004 5.43369 46.3071 5.43369C48.4309 5.43369 48.8381 5.92827 48.9088 8.71899H45.5343V10.6029H49.9726C50.8468 10.6029 50.8468 9.97882 50.8468 9.77376V9.17235C50.7835 4.82685 49.7651 3.57043 46.3071 3.57043Z"
          fill="white"/>
    <path fill-rule="evenodd" clip-rule="evenodd"
          d="M40.4628 3.73656L40.4147 3.72354C40.0013 3.63479 38.8716 3.57043 38.3116 3.57043C36.3298 3.57043 35.2822 4.41749 35.2822 6.02006V14.9427C35.2822 15.3101 35.5341 15.5666 35.8948 15.5666H36.5998C36.9605 15.5666 37.2123 15.3101 37.2123 14.9427V6.1839C37.2123 5.78844 37.3104 5.43369 38.493 5.43369L40.2441 5.43205C40.4155 5.45304 40.5791 5.40462 40.705 5.29576C40.8426 5.1773 40.9181 5.00461 40.9181 4.80978V4.35845C40.9181 4.0621 40.7522 3.83542 40.4628 3.73656Z"
          fill="white"/>
    <path fill-rule="evenodd" clip-rule="evenodd"
          d="M31.9985 3.71411H31.2936C30.9329 3.71411 30.681 3.97063 30.681 4.33789V13.806H27.749C25.9354 13.806 25.1996 13.6883 25.1996 10.7377V4.33789C25.1996 3.97063 24.9477 3.71411 24.5871 3.71411H23.9021C23.5414 3.71411 23.2695 3.98226 23.2695 4.33789V10.7377C23.2695 14.9312 24.7595 15.6692 27.8899 15.6692C29.0162 15.6692 30.5585 15.6692 32.0295 15.4578L32.0633 15.4508C32.4267 15.3582 32.611 15.1458 32.611 14.8197V4.33789C32.611 3.97063 32.359 3.71411 31.9985 3.71411Z"
          fill="white"/>
    <path fill-rule="evenodd" clip-rule="evenodd"
          d="M21.0956 4.00714C21.0051 3.8108 20.8111 3.69348 20.5765 3.69348H19.6703C19.4072 3.69348 19.2103 3.8017 19.1066 3.99652L17.7637 5.99974L18.9394 7.64125L20.9922 4.63523C21.2175 4.35582 21.1395 4.10285 21.0956 4.00714Z"
          fill="#74BB11"/>
    <path fill-rule="evenodd" clip-rule="evenodd"
          d="M14.0148 3.97389L14.0136 3.972C13.8089 3.69348 13.5364 3.69348 13.4468 3.69348H12.5605C12.3335 3.69348 12.1475 3.79993 12.0503 3.9854C11.9504 4.17529 11.9715 4.40361 12.1098 4.615L15.3933 9.26164L11.6176 14.6376C11.4857 14.8398 11.4672 15.0646 11.5668 15.2543C11.6645 15.4398 11.8506 15.546 12.0773 15.546H12.9834C13.2164 15.546 13.4212 15.4226 13.5238 15.228L17.7499 9.28301L14.0148 3.97389Z"
          fill="#009CD9"/>
    <path fill-rule="evenodd" clip-rule="evenodd"
          d="M21.5455 14.6845L18.9112 10.9939L17.7524 12.6247L19.8359 15.463L19.89 15.4872C19.9798 15.5268 20.0657 15.5458 20.1528 15.5458H21.0388C21.2528 15.5458 21.4345 15.4488 21.5374 15.2792C21.6428 15.1055 21.6458 14.8888 21.5455 14.6845Z"
          fill="#EB2084"/>
    <path fill-rule="evenodd" clip-rule="evenodd"
          d="M8.1324 10.5206V13.6548C7.23518 13.7952 5.86776 13.8265 5.40177 13.8265C3.33995 13.8265 3.11416 13.2513 3.11416 12.0301C3.11416 10.8873 3.5331 10.5206 4.83784 10.5206H8.1324ZM5.3011 3.57043C4.66406 3.57043 3.79527 3.58725 2.71446 3.72012L2.66555 3.73099C2.35063 3.82253 2.19112 4.03366 2.19112 4.35844V4.80978C2.19112 5.1945 2.42585 5.43369 2.80371 5.43369H5.3011C7.31215 5.43369 8.1324 5.98971 8.1324 7.35321V8.67803H4.83784C2.26287 8.67803 1.16406 9.68045 1.16406 12.0301C1.16406 14.6489 2.30135 15.6692 5.22054 15.6692C6.40289 15.6692 8.57952 15.5754 9.38402 15.325C10.0624 15.1328 10.0624 14.6038 10.0624 14.43V7.23033C10.0624 4.76756 8.50492 3.57043 5.3011 3.57043Z"
          fill="white"/>
</svg>
